<svg width="52" height="52" viewBox="0 0 52 52" fill="none" xmlns="http://www.w3.org/2000/svg">
<rect width="51.3014" height="51.3014" rx="25.6507" fill="white"/>
<path fill-rule="evenodd" clip-rule="evenodd" d="M46.3014 25.6507C46.3014 29.735 45.0903 33.7276 42.8211 37.1236C40.552 40.5196 37.3268 43.1664 33.5534 44.7294C29.78 46.2924 25.6278 46.7014 21.622 45.9046C17.6161 45.1078 13.9365 43.141 11.0485 40.2529C8.16041 37.3649 6.19362 33.6853 5.39681 29.6794C4.59999 25.6736 5.00895 21.5214 6.57195 17.748C8.13495 13.9746 10.7818 10.7494 14.1778 8.48026C17.5738 6.21114 21.5664 5 25.6507 5C28.3626 5 31.0479 5.53414 33.5534 6.57194C36.0588 7.60973 38.3354 9.13085 40.2529 11.0484C42.1705 12.966 43.6917 15.2426 44.7295 17.748C45.7673 20.2535 46.3014 22.9388 46.3014 25.6507ZM15.544 28.0906C16.0353 29.8668 17.3674 30.755 19.5405 30.7552C20.9387 30.7552 21.997 30.2827 22.7152 29.3378L25.663 31.0384C24.2643 33.0605 22.2047 34.0714 19.4842 34.0712C17.141 34.0712 15.2609 33.3626 13.844 31.9455C12.4833 30.4981 11.7234 28.5877 11.7181 26.6012C11.7129 24.6146 12.4627 22.7003 13.8157 21.2457C15.2137 19.8197 17.0087 19.1067 19.2007 19.1067C20.162 19.0792 21.1182 19.257 22.0053 19.6285C22.8925 19.9999 23.6901 20.5564 24.345 21.2607C25.6973 22.6999 26.4258 24.6153 26.3716 26.5894C26.3685 27.0933 26.321 27.5959 26.2297 28.0915L15.544 28.0906ZM15.4865 25.256H22.7152C22.5731 24.4007 22.1123 23.6309 21.4255 23.1017C20.7797 22.6317 19.9991 22.3832 19.2004 22.3935C18.326 22.3592 17.4661 22.6242 16.7626 23.1445C16.101 23.6754 15.6489 24.4235 15.4865 25.256ZM32.671 33.5251C33.5884 33.8962 34.5703 34.0818 35.5599 34.0709L35.5611 34.0706C36.8858 34.085 38.1893 33.7372 39.3308 33.0647C40.4342 32.425 41.3448 31.4997 41.9668 30.3862L38.7924 28.572C38.5145 29.1521 38.0642 29.6322 37.503 29.9467C36.902 30.2837 36.2221 30.4548 35.5331 30.4425C35.0289 30.4579 34.5269 30.369 34.0587 30.1813C33.5904 29.9936 33.166 29.7111 32.8121 29.3517C32.1192 28.5926 31.735 27.6019 31.735 26.5741C31.735 25.5463 32.1192 24.5556 32.8121 23.7965C33.1661 23.437 33.5905 23.1546 34.0587 22.9668C34.5269 22.779 35.0289 22.69 35.5331 22.7053C36.2145 22.6956 36.8857 22.872 37.4744 23.2153C38.0343 23.5379 38.4838 24.0219 38.7641 24.6041L41.9089 22.7619C41.3217 21.6454 40.4265 20.7207 39.3295 20.0976C38.1853 19.4334 36.8829 19.0906 35.5599 19.1053C34.5703 19.0944 33.5884 19.2799 32.671 19.6511C31.7536 20.0222 30.919 20.5717 30.2153 21.2676C29.5117 21.9635 28.9531 22.7921 28.5719 23.7054C28.1907 24.6186 27.9944 25.5984 27.9944 26.5881C27.9944 27.5777 28.1907 28.5575 28.5719 29.4708C28.9531 30.384 29.5117 31.2126 30.2153 31.9085C30.919 32.6045 31.7536 33.1539 32.671 33.5251Z" fill="#F7CA11"/>
</svg>
